<?xml version="1.0" standalone="no"?>
<!DOCTYPE svg PUBLIC "-//W3C//DTD SVG 20010904//EN"
 "http://www.w3.org/TR/2001/REC-SVG-20010904/DTD/svg10.dtd">
<svg version="1.0" xmlns="http://www.w3.org/2000/svg"
 width="1280.000000pt" height="759.000000pt" viewBox="0 0 1280.000000 759.000000"
 preserveAspectRatio="xMidYMid meet">
<metadata>
Created by potrace 1.15, written by Peter Selinger 2001-2017
</metadata>
<g transform="translate(0.000000,759.000000) scale(0.100000,-0.100000)"
fill="#000000" stroke="none">
<path d="M2477 7576 c-61 -17 -115 -60 -144 -117 -22 -43 -22 -52 -23 -361 l0
-318 -1113 0 -1114 0 -21 -23 c-11 -12 -29 -40 -39 -62 -17 -38 -18 -173 -21
-2915 -2 -1992 1 -2890 8 -2925 6 -27 22 -67 36 -88 l24 -37 1983 0 1984 0 21
23 c46 49 54 97 60 349 l4 238 1109 0 1109 0 0 -385 0 -385 -758 0 -758 0 -44
-22 c-86 -44 -106 -108 -98 -311 5 -118 15 -153 60 -194 12 -12 36 -26 51 -32
40 -15 4224 -15 4264 0 38 14 83 57 99 96 19 45 19 311 0 356 -16 39 -61 82
-99 96 -19 8 -271 11 -773 11 l-744 0 0 385 0 385 1495 0 1494 0 3 -343 c3
-308 5 -346 21 -370 l17 -27 1095 0 1094 0 18 33 c17 30 18 140 18 2152 0
2012 -1 2122 -18 2153 l-18 32 -565 0 -566 0 9 923 c12 1417 12 1460 -14 1531
-28 74 -62 118 -110 142 -37 19 -146 19 -4513 21 -3630 1 -4484 -1 -4523 -11z
m4748 -351 c1403 -3 2897 -8 3321 -11 l772 -6 6 -282 c3 -154 7 -658 10 -1118
l4 -838 -384 0 -384 0 -17 -27 c-17 -26 -18 -117 -23 -1633 l-5 -1605 -1535
-6 c-844 -4 -2285 -10 -3202 -13 l-1668 -7 0 2433 c0 1539 -4 2458 -10 2501
-11 76 -40 141 -69 157 -13 7 -263 10 -740 10 l-721 0 0 231 0 232 1048 -7
c576 -3 2195 -8 3597 -11z m-3305 -5925 c-21 -13 -3677 -13 -3685 0 -4 7 631
10 1847 10 1202 0 1848 -4 1838 -10z"/>
</g>
</svg>
